<svg width="1600" height="1200" xmlns="http://www.w3.org/2000/svg" viewBox="0 0 1600 1200"><defs><pattern id="a" width="300" height="150" patternUnits="userSpaceOnUse"><circle cx="150" r="147.5" stroke-width="5" stroke="#f9be03" fill="#413d3c"/><circle cx="150" r="127.5" stroke-width="5" stroke="#f9be03" fill="#413d3c"/><circle cx="150" r="107.5" stroke-width="5" stroke="#f9be03" fill="#413d3c"/><circle cx="150" r="87.5" stroke-width="5" stroke="#f9be03" fill="#413d3c"/><circle cx="150" r="67.5" stroke-width="5" stroke="#f9be03" fill="#413d3c"/><circle cx="150" r="47.5" stroke-width="5" stroke="#f9be03" fill="#413d3c"/><circle cx="150" r="27.5" stroke-width="5" stroke="#f9be03" fill="#413d3c"/><circle cy="75" r="147.5" stroke-width="5" stroke="#f9be03" fill="#413d3c"/><circle cy="75" r="127.5" stroke-width="5" stroke="#f9be03" fill="#413d3c"/><circle cy="75" r="107.5" stroke-width="5" stroke="#f9be03" fill="#413d3c"/><circle cy="75" r="87.5" stroke-width="5" stroke="#f9be03" fill="#413d3c"/><circle cy="75" r="67.5" stroke-width="5" stroke="#f9be03" fill="#413d3c"/><circle cy="75" r="47.5" stroke-width="5" stroke="#f9be03" fill="#413d3c"/><circle cy="75" r="27.5" stroke-width="5" stroke="#f9be03" fill="#413d3c"/><circle cx="300" cy="75" r="147.5" stroke-width="5" stroke="#f9be03" fill="#413d3c"/><circle cx="300" cy="75" r="127.5" stroke-width="5" stroke="#f9be03" fill="#413d3c"/><circle cx="300" cy="75" r="107.5" stroke-width="5" stroke="#f9be03" fill="#413d3c"/><circle cx="300" cy="75" r="87.5" stroke-width="5" stroke="#f9be03" fill="#413d3c"/><circle cx="300" cy="75" r="67.5" stroke-width="5" stroke="#f9be03" fill="#413d3c"/><circle cx="300" cy="75" r="47.5" stroke-width="5" stroke="#f9be03" fill="#413d3c"/><circle cx="300" cy="75" r="27.5" stroke-width="5" stroke="#f9be03" fill="#413d3c"/><circle cx="150" cy="150" r="147.5" stroke-width="5" stroke="#f9be03" fill="#413d3c"/><circle cx="150" cy="150" r="127.5" stroke-width="5" stroke="#f9be03" fill="#413d3c"/><circle cx="150" cy="150" r="107.5" stroke-width="5" stroke="#f9be03" fill="#413d3c"/><circle cx="150" cy="150" r="87.5" stroke-width="5" stroke="#f9be03" fill="#413d3c"/><circle cx="150" cy="150" r="67.5" stroke-width="5" stroke="#f9be03" fill="#413d3c"/><circle cx="150" cy="150" r="47.5" stroke-width="5" stroke="#f9be03" fill="#413d3c"/><circle cx="150" cy="150" r="27.5" stroke-width="5" stroke="#f9be03" fill="#413d3c"/><circle cy="225" r="147.5" stroke-width="5" stroke="#f9be03" fill="#413d3c"/><circle cy="225" r="127.5" stroke-width="5" stroke="#f9be03" fill="#413d3c"/><circle cy="225" r="107.5" stroke-width="5" stroke="#f9be03" fill="#413d3c"/><circle cy="225" r="87.5" stroke-width="5" stroke="#f9be03" fill="#413d3c"/><circle cy="225" r="67.5" stroke-width="5" stroke="#f9be03" fill="#413d3c"/><circle cy="225" r="47.5" stroke-width="5" stroke="#f9be03" fill="#413d3c"/><circle cy="225" r="27.5" stroke-width="5" stroke="#f9be03" fill="#413d3c"/><circle cx="300" cy="225" r="147.5" stroke-width="5" stroke="#f9be03" fill="#413d3c"/><circle cx="300" cy="225" r="127.5" stroke-width="5" stroke="#f9be03" fill="#413d3c"/><circle cx="300" cy="225" r="107.5" stroke-width="5" stroke="#f9be03" fill="#413d3c"/><circle cx="300" cy="225" r="87.5" stroke-width="5" stroke="#f9be03" fill="#413d3c"/><circle cx="300" cy="225" r="67.5" stroke-width="5" stroke="#f9be03" fill="#413d3c"/><circle cx="300" cy="225" r="47.5" stroke-width="5" stroke="#f9be03" fill="#413d3c"/><circle cx="300" cy="225" r="27.5" stroke-width="5" stroke="#f9be03" fill="#413d3c"/></pattern></defs><path fill="url(#a)" d="M0 0h1600v1200H0z"/></svg>
